<?xml version="1.0" encoding="UTF-8" standalone="no"?>
<!-- Created with Inkscape (http://www.inkscape.org/) -->

<svg
   width="30.835484mm"
   height="26.179657mm"
   viewBox="0 0 30.835484 26.179657"
   version="1.1"
   id="svg5"
   xmlns="http://www.w3.org/2000/svg"
   xmlns:svg="http://www.w3.org/2000/svg">
  <defs
     id="defs2" />
  <g
     id="layer1"
     transform="translate(-63.429872,-98.628335)">
    <path
       style="fill:none;fill-rule:evenodd;stroke:#00a6d9;stroke-width:4.0252;stroke-miterlimit:4;stroke-dasharray:none;stroke-opacity:0.607742"
       id="path952"
       d="m 296.21497,425.3494 c 2.32262,1.85163 -1.35006,4.04438 -3.07754,3.86035 -4.68134,-0.4987 -6.07554,-6.26553 -4.64317,-10.01542 2.56216,-6.70767 10.98878,-8.41041 16.9533,-5.426 8.75318,4.37974 10.80556,15.77288 6.20882,23.89119 -6.12671,10.82043 -20.57816,13.22585 -30.82907,6.99165 -12.89974,-7.8451 -15.65903,-25.39343 -7.77447,-37.76697 9.54926,-14.98601 30.2143,-18.09966 44.70485,-8.55729 17.07661,11.24536 20.54497,35.03867 9.34011,51.64274 -12.93645,19.17006 -39.86536,22.9934 -58.58062,10.12294 -21.26547,-14.62424 -25.44401,-44.6937 -10.90576,-65.51851 16.30972,-23.36229 49.52323,-27.89621 72.4564,-11.68859 25.46016,17.99353 30.34958,54.35367 12.4714,79.39429"
       transform="matrix(0.08011954,-0.22760105,0.28905293,0.06308634,-67.271321,153.15441)" />
    <path
       style="fill:none;fill-rule:evenodd;stroke:#ff0000;stroke-opacity:1"
       id="path847"
       d="m 296.21497,425.3494 c 2.32262,1.85163 -1.35006,4.04438 -3.07754,3.86035 -4.68134,-0.4987 -6.07554,-6.26553 -4.64317,-10.01542 2.56216,-6.70767 10.98878,-8.41041 16.9533,-5.426 8.75318,4.37974 10.80556,15.77288 6.20882,23.89119 -6.12671,10.82043 -20.57816,13.22585 -30.82907,6.99165 -12.89974,-7.8451 -15.65903,-25.39343 -7.77447,-37.76697 9.54926,-14.98601 30.2143,-18.09966 44.70485,-8.55729 17.07661,11.24536 20.54497,35.03867 9.34011,51.64274 -12.93645,19.17006 -39.86536,22.9934 -58.58062,10.12294 -21.26547,-14.62424 -25.44401,-44.6937 -10.90576,-65.51851 16.30972,-23.36229 49.52323,-27.89621 72.4564,-11.68859 25.46016,17.99353 30.34958,54.35367 12.4714,79.39429"
       transform="scale(0.26458333)" />
    <path
       style="fill:none;fill-rule:evenodd;stroke:#00d800;stroke-opacity:0.647354"
       id="path2718"
       d="m 296.21497,425.3494 c 2.32262,1.85163 -1.35006,4.04438 -3.07754,3.86035 -4.68134,-0.4987 -6.07554,-6.26553 -4.64317,-10.01542 2.56216,-6.70767 10.98878,-8.41041 16.9533,-5.426 8.75318,4.37974 10.80556,15.77288 6.20882,23.89119 -6.12671,10.82043 -20.57816,13.22585 -30.82907,6.99165 -12.89974,-7.8451 -15.65903,-25.39343 -7.77447,-37.76697 9.54926,-14.98601 30.2143,-18.09966 44.70485,-8.55729 17.07661,11.24536 20.54497,35.03867 9.34011,51.64274 -12.93645,19.17006 -39.86536,22.9934 -58.58062,10.12294 -21.26547,-14.62424 -25.44401,-44.6937 -10.90576,-65.51851 16.30972,-23.36229 49.52323,-27.89621 72.4564,-11.68859 25.46016,17.99353 30.34958,54.35367 12.4714,79.39429"
       transform="matrix(0.00986749,0.22838557,-0.24347518,0.00896062,179.01267,40.175023)" />
  </g>
</svg>
